<svg width="178" height="76" viewBox="0 0 178 76" fill="none" xmlns="http://www.w3.org/2000/svg">
<path d="M61.2374 48.3669V45.2304L70.7079 34.1764L71.6215 35.9122H61.4506V31.923H75.8847V35.0595L66.3838 46.1135L65.4702 44.3778H76.1588V48.3669H61.2374ZM87.1806 48.6106C85.2723 48.6106 83.5975 48.2451 82.1561 47.5143C80.735 46.7835 79.6286 45.7785 78.8369 44.4996C78.0654 43.2206 77.6797 41.7691 77.6797 40.145C77.6797 38.4803 78.0654 37.0186 78.8369 35.7599C79.6083 34.481 80.664 33.4862 82.0038 32.7757C83.3437 32.0448 84.8663 31.6794 86.5716 31.6794C88.1754 31.6794 89.6371 32.0144 90.9566 32.6843C92.2762 33.3543 93.3217 34.3287 94.0932 35.6077C94.8646 36.8663 95.2503 38.3889 95.2503 40.1754C95.2503 40.3784 95.2402 40.6119 95.2199 40.8758C95.1996 41.1194 95.1793 41.3427 95.159 41.5458H81.9734V38.6528H92.3879L90.3476 39.475C90.3679 38.6833 90.2157 37.9931 89.8908 37.4043C89.566 36.8156 89.1194 36.3588 88.551 36.034C88.0028 35.6889 87.3532 35.5163 86.6021 35.5163C85.8509 35.5163 85.1911 35.6889 84.6227 36.034C84.0543 36.3588 83.6076 36.8156 83.2828 37.4043C82.9783 37.9931 82.826 38.7036 82.826 39.5359V40.3277C82.826 41.1803 83.0087 41.9213 83.3742 42.5507C83.7396 43.18 84.2573 43.6672 84.9272 44.0123C85.6174 44.3575 86.4193 44.53 87.3329 44.53C88.1855 44.53 88.9164 44.4082 89.5254 44.1646C90.1547 43.9007 90.7435 43.515 91.2916 43.0074L94.0932 45.9613C93.3014 46.8342 92.3371 47.494 91.2003 47.9406C90.0634 48.3872 88.7235 48.6106 87.1806 48.6106ZM105.108 48.6106C103.748 48.6106 102.54 48.3568 101.484 47.8493C100.429 47.3214 99.5964 46.5094 98.9873 45.4131C98.3986 44.2966 98.1042 42.8755 98.1042 41.1499V31.923H103.372V40.3277C103.372 41.6473 103.636 42.6116 104.164 43.2206C104.692 43.8093 105.433 44.1037 106.387 44.1037C107.057 44.1037 107.646 43.9616 108.153 43.6774C108.681 43.3729 109.087 42.9161 109.371 42.3071C109.676 41.698 109.828 40.9164 109.828 39.9623V31.923H115.096V48.3669H110.102V43.7687L111.046 45.1086C110.478 46.2658 109.656 47.1387 108.58 47.7275C107.524 48.3162 106.367 48.6106 105.108 48.6106ZM126.103 48.6106C124.743 48.6106 123.535 48.3568 122.479 47.8493C121.424 47.3214 120.591 46.5094 119.982 45.4131C119.394 44.2966 119.099 42.8755 119.099 41.1499V31.923H124.367V40.3277C124.367 41.6473 124.631 42.6116 125.159 43.2206C125.687 43.8093 126.428 44.1037 127.382 44.1037C128.052 44.1037 128.641 43.9616 129.148 43.6774C129.676 43.3729 130.082 42.9161 130.366 42.3071C130.671 41.698 130.823 40.9164 130.823 39.9623V31.923H136.091V48.3669H131.097V43.7687L132.041 45.1086C131.473 46.2658 130.651 47.1387 129.575 47.7275C128.519 48.3162 127.362 48.6106 126.103 48.6106ZM145.911 48.6106C144.53 48.6106 143.18 48.4481 141.86 48.1233C140.561 47.7985 139.516 47.3823 138.724 46.8748L140.368 43.2206C141.14 43.6875 142.033 44.0631 143.048 44.3473C144.083 44.6315 145.109 44.7736 146.124 44.7736C147.139 44.7736 147.859 44.6518 148.286 44.4082C148.712 44.1646 148.925 43.8398 148.925 43.4338C148.925 43.0886 148.743 42.8349 148.377 42.6725C148.032 42.4898 147.565 42.3578 146.976 42.2766C146.388 42.1751 145.748 42.0736 145.058 41.9721C144.368 41.8706 143.667 41.7386 142.957 41.5762C142.246 41.3935 141.597 41.1296 141.008 40.7845C140.439 40.419 139.972 39.942 139.607 39.3532C139.262 38.7645 139.089 37.9931 139.089 37.0389C139.089 36.0036 139.394 35.09 140.003 34.2983C140.612 33.4862 141.495 32.8467 142.652 32.3798C143.83 31.9129 145.241 31.6794 146.885 31.6794C148.042 31.6794 149.199 31.8012 150.356 32.0448C151.534 32.2681 152.519 32.6133 153.31 33.0802L151.666 36.7344C150.854 36.2675 150.042 35.9528 149.23 35.7904C148.438 35.6077 147.667 35.5163 146.915 35.5163C145.9 35.5163 145.17 35.6483 144.723 35.9122C144.276 36.1558 144.053 36.4705 144.053 36.8562C144.053 37.2216 144.226 37.4957 144.571 37.6784C144.936 37.8611 145.403 38.0134 145.971 38.1352C146.56 38.2367 147.2 38.3382 147.89 38.4397C148.6 38.5209 149.301 38.6528 149.991 38.8356C150.702 39.0183 151.341 39.2822 151.91 39.6273C152.498 39.9724 152.965 40.4393 153.31 41.0281C153.676 41.6168 153.858 42.3781 153.858 43.312C153.858 44.327 153.554 45.2406 152.945 46.0526C152.336 46.8444 151.443 47.4737 150.265 47.9406C149.088 48.3872 147.636 48.6106 145.911 48.6106Z" fill="#151515"/>
<rect x="17.6896" y="19" width="37.8681" height="37.8681" rx="6.88511" fill="#151515"/>
<path fill-rule="evenodd" clip-rule="evenodd" d="M39.8621 38.7952L39.9458 48.9421L31.4415 49.0123C28.6234 49.0355 26.32 46.7698 26.2968 43.9518C26.2755 41.3653 28.1823 39.2124 30.6747 38.858C30.4019 41.1764 33.9991 43.6021 39.8621 38.7952Z" fill="white"/>
<path fill-rule="evenodd" clip-rule="evenodd" d="M33.2648 36.9628L33.1812 26.8171L41.6855 26.747C44.5036 26.7238 46.8069 28.9894 46.8302 31.8075C46.8515 34.3941 44.9446 36.547 42.4522 36.9013C42.7264 34.5825 39.1289 32.1551 33.2648 36.9628Z" fill="white"/>
</svg>
