<svg width="143" height="38" viewBox="0 0 143 38" fill="none" xmlns="http://www.w3.org/2000/svg">
<path d="M44.2461 29.3667V26.2302L53.7165 15.1762L54.6301 16.912H44.4592V12.9228H58.8933V16.0593L49.3924 27.1133L48.4788 25.3775H59.1674V29.3667H44.2461ZM70.1892 29.6103C68.2809 29.6103 66.6061 29.2449 65.1647 28.5141C63.7436 27.7832 62.6372 26.7783 61.8455 25.4993C61.074 24.2204 60.6883 22.7688 60.6883 21.1447C60.6883 19.48 61.074 18.0184 61.8455 16.7597C62.6169 15.4807 63.6726 14.486 65.0124 13.7754C66.3523 13.0446 67.8749 12.6792 69.5802 12.6792C71.184 12.6792 72.6457 13.0141 73.9653 13.6841C75.2848 14.354 76.3303 15.3285 77.1018 16.6074C77.8732 17.8661 78.2589 19.3887 78.2589 21.1752C78.2589 21.3782 78.2488 21.6117 78.2285 21.8756C78.2082 22.1192 78.1879 22.3425 78.1676 22.5455H64.982V19.6526H75.3965L73.3562 20.4748C73.3765 19.6831 73.2243 18.9928 72.8994 18.4041C72.5746 17.8154 72.128 17.3586 71.5596 17.0338C71.0114 16.6886 70.3618 16.5161 69.6107 16.5161C68.8595 16.5161 68.1997 16.6886 67.6313 17.0338C67.0629 17.3586 66.6162 17.8154 66.2914 18.4041C65.9869 18.9928 65.8346 19.7034 65.8346 20.5357V21.3274C65.8346 22.1801 66.0174 22.9211 66.3828 23.5504C66.7482 24.1798 67.2659 24.667 67.9358 25.0121C68.6261 25.3572 69.4279 25.5298 70.3415 25.5298C71.1941 25.5298 71.925 25.408 72.534 25.1644C73.1634 24.9004 73.7521 24.5147 74.3002 24.0072L77.1018 26.961C76.31 27.834 75.3457 28.4938 74.2089 28.9404C73.072 29.387 71.7321 29.6103 70.1892 29.6103ZM88.1167 29.6103C86.7566 29.6103 85.5486 29.3565 84.493 28.849C83.4373 28.3212 82.605 27.5091 81.9959 26.4129C81.4072 25.2963 81.1128 23.8752 81.1128 22.1496V12.9228H86.381V21.3274C86.381 22.647 86.6449 23.6113 87.1727 24.2204C87.7006 24.8091 88.4415 25.1035 89.3957 25.1035C90.0656 25.1035 90.6544 24.9614 91.1619 24.6771C91.6897 24.3726 92.0958 23.9158 92.38 23.3068C92.6845 22.6978 92.8367 21.9162 92.8367 20.962V12.9228H98.1049V29.3667H93.1108V24.7685L94.0548 26.1084C93.4864 27.2655 92.6642 28.1385 91.5882 28.7272C90.5326 29.3159 89.3754 29.6103 88.1167 29.6103ZM109.112 29.6103C107.752 29.6103 106.544 29.3565 105.488 28.849C104.432 28.3212 103.6 27.5091 102.991 26.4129C102.402 25.2963 102.108 23.8752 102.108 22.1496V12.9228H107.376V21.3274C107.376 22.647 107.64 23.6113 108.168 24.2204C108.696 24.8091 109.437 25.1035 110.391 25.1035C111.061 25.1035 111.649 24.9614 112.157 24.6771C112.685 24.3726 113.091 23.9158 113.375 23.3068C113.68 22.6978 113.832 21.9162 113.832 20.962V12.9228H119.1V29.3667H114.106V24.7685L115.05 26.1084C114.481 27.2655 113.659 28.1385 112.583 28.7272C111.528 29.3159 110.37 29.6103 109.112 29.6103ZM128.919 29.6103C127.539 29.6103 126.189 29.4479 124.869 29.1231C123.57 28.7983 122.524 28.3821 121.733 27.8746L123.377 24.2204C124.148 24.6873 125.042 25.0629 126.057 25.3471C127.092 25.6313 128.117 25.7734 129.132 25.7734C130.147 25.7734 130.868 25.6516 131.294 25.408C131.721 25.1644 131.934 24.8395 131.934 24.4335C131.934 24.0884 131.751 23.8346 131.386 23.6722C131.041 23.4895 130.574 23.3576 129.985 23.2764C129.396 23.1749 128.757 23.0733 128.067 22.9718C127.376 22.8703 126.676 22.7384 125.965 22.576C125.255 22.3933 124.605 22.1293 124.016 21.7842C123.448 21.4188 122.981 20.9417 122.616 20.353C122.271 19.7643 122.098 18.9928 122.098 18.0387C122.098 17.0033 122.402 16.0898 123.012 15.298C123.621 14.486 124.504 13.8465 125.661 13.3796C126.838 12.9126 128.249 12.6792 129.894 12.6792C131.051 12.6792 132.208 12.801 133.365 13.0446C134.543 13.2679 135.527 13.613 136.319 14.0799L134.675 17.7341C133.862 17.2672 133.05 16.9526 132.238 16.7901C131.447 16.6074 130.675 16.5161 129.924 16.5161C128.909 16.5161 128.178 16.648 127.732 16.912C127.285 17.1556 127.062 17.4702 127.062 17.856C127.062 18.2214 127.234 18.4954 127.579 18.6782C127.945 18.8609 128.412 19.0131 128.98 19.1349C129.569 19.2364 130.208 19.3379 130.899 19.4394C131.609 19.5206 132.309 19.6526 133 19.8353C133.71 20.018 134.35 20.2819 134.918 20.6271C135.507 20.9722 135.974 21.4391 136.319 22.0278C136.684 22.6166 136.867 23.3779 136.867 24.3117C136.867 25.3268 136.563 26.2403 135.954 27.0524C135.344 27.8441 134.451 28.4734 133.274 28.9404C132.096 29.387 130.645 29.6103 128.919 29.6103Z" fill="white"/>
<rect x="0.698242" width="37.8681" height="37.8681" rx="6.88511" fill="white"/>
<path fill-rule="evenodd" clip-rule="evenodd" d="M22.8708 19.795L22.9545 29.9418L14.4497 30.012C11.6315 30.0352 9.32803 27.7694 9.30479 24.9512C9.28345 22.3646 11.1904 20.2116 13.6829 19.8572C13.4095 22.1759 17.007 24.6025 22.8708 19.795Z" fill="#1B1A1A"/>
<path fill-rule="evenodd" clip-rule="evenodd" d="M16.2734 17.9628L16.1898 7.81664L24.6945 7.7465C27.5127 7.72326 29.8162 9.98905 29.8394 12.8073C29.8608 15.3939 27.9538 17.5469 25.4612 17.9013C25.7354 15.5824 22.1378 13.1549 16.2734 17.9628Z" fill="#1B1A1A"/>
</svg>
